<svg xmlns="http://www.w3.org/2000/svg" width="48.463" height="37.694" viewBox="0 0 48.463 37.694">
  <path id="Icon_awesome-shopping-basket" data-name="Icon awesome-shopping-basket" d="M48.463,17.731v1.346A2.019,2.019,0,0,1,46.444,21.1h-.673l-2.2,15.379a4.039,4.039,0,0,1-4,3.467H8.887a4.039,4.039,0,0,1-4-3.467L2.692,21.1H2.019A2.019,2.019,0,0,1,0,19.077V17.731a2.019,2.019,0,0,1,2.019-2.019H7.685L16.669,3.359a2.692,2.692,0,0,1,4.355,3.167l-6.681,9.186H34.119L27.439,6.526a2.692,2.692,0,0,1,4.355-3.167l8.984,12.353h5.666A2.019,2.019,0,0,1,48.463,17.731ZM26.251,32.539V23.116a2.019,2.019,0,0,0-4.039,0v9.423a2.019,2.019,0,0,0,4.039,0Zm9.423,0V23.116a2.019,2.019,0,1,0-4.039,0v9.423a2.019,2.019,0,1,0,4.039,0Zm-18.847,0V23.116a2.019,2.019,0,1,0-4.039,0v9.423a2.019,2.019,0,1,0,4.039,0Z" transform="translate(0 -2.25)" fill="#ba4e62"/>
</svg>
