<svg xmlns="http://www.w3.org/2000/svg" width="33.12" height="30.96" viewBox="0 0 33.12 30.96">
  <path id="Icon_map-travel-agency" data-name="Icon map-travel-agency" d="M33.12,10.08H24.48V7.217c0-2.053-1.326-4.337-3.376-4.337H14.2c-2.053,0-3.4,2.285-3.4,4.337V10.08H2.88a1.444,1.444,0,0,0-1.44,1.44V32.4a1.444,1.444,0,0,0,1.44,1.44H33.12a1.444,1.444,0,0,0,1.44-1.44V11.52A1.444,1.444,0,0,0,33.12,10.08ZM21.6,31.68H13.68v-.768c0-.017.441-.038.652-.063a2.277,2.277,0,0,0,.548-.127,1.388,1.388,0,0,0,.683-.436,1.494,1.494,0,0,0,.277-.753V22.167a1.568,1.568,0,0,0-.314-.778,1.848,1.848,0,0,0-.562-.538,1.683,1.683,0,0,0-.567-.291c-.308-.093-.718-.153-.718-.178v-.924l5.886-.329-.126.189V29.367a1.543,1.543,0,0,0,.354.753,1.378,1.378,0,0,0,.626.462,4.2,4.2,0,0,0,.552.2c.2.059.627.1.627.127v.768ZM14.846,14.572a2.161,2.161,0,0,1,.74-1.645,2.614,2.614,0,0,1,3.524,0,2.171,2.171,0,0,1,.734,1.645,2.142,2.142,0,0,1-.74,1.639,2.625,2.625,0,0,1-3.519,0A2.141,2.141,0,0,1,14.846,14.572ZM22.32,10.08H12.96V7.217c0-.768.778-2.177,1.546-2.177h5.8c.767,0,2.017,1.409,2.017,2.177Z" transform="translate(-1.44 -2.88)" fill="#25304a"/>
</svg>
