<svg xmlns="http://www.w3.org/2000/svg" width="44.481" height="41.581" viewBox="0 0 44.481 41.581">
  <path id="Icon_map-travel-agency" data-name="Icon map-travel-agency" d="M43.987,12.55h-11.6V8.705c0-2.757-1.78-5.825-4.534-5.825H18.574c-2.757,0-4.563,3.068-4.563,5.825V12.55H3.374A1.94,1.94,0,0,0,1.44,14.484V42.527A1.94,1.94,0,0,0,3.374,44.46H43.987a1.94,1.94,0,0,0,1.934-1.934V14.484A1.94,1.94,0,0,0,43.987,12.55ZM28.516,41.56H17.879V40.528c0-.022.593-.051.876-.085a3.058,3.058,0,0,0,.736-.17,1.864,1.864,0,0,0,.917-.586,2.006,2.006,0,0,0,.372-1.011V28.783a2.106,2.106,0,0,0-.422-1.045,2.482,2.482,0,0,0-.754-.722,2.261,2.261,0,0,0-.761-.391c-.414-.125-.964-.2-.964-.239V25.145l7.905-.442-.169.254v13.5a2.073,2.073,0,0,0,.476,1.011,1.851,1.851,0,0,0,.841.621,5.644,5.644,0,0,0,.742.272c.273.079.842.135.842.17V41.56ZM19.444,18.583a2.9,2.9,0,0,1,.994-2.21,3.511,3.511,0,0,1,4.733,0,2.916,2.916,0,0,1,.986,2.21,2.877,2.877,0,0,1-.994,2.2,3.526,3.526,0,0,1-4.726,0A2.875,2.875,0,0,1,19.444,18.583ZM29.483,12.55H16.912V8.705c0-1.032,1.044-2.924,2.076-2.924h7.786c1.03,0,2.709,1.892,2.709,2.924Z" transform="translate(-1.44 -2.88)" fill="#25304a"/>
</svg>
