<svg xmlns="http://www.w3.org/2000/svg" width="36.327" height="41.517" viewBox="0 0 36.327 41.517">
  <path id="Icon_awesome-building" data-name="Icon awesome-building" d="M35.354,38.922H33.733V1.946A1.946,1.946,0,0,0,31.786,0H4.541A1.946,1.946,0,0,0,2.595,1.946V38.922H.973A.973.973,0,0,0,0,39.9v1.622H36.327V39.9A.973.973,0,0,0,35.354,38.922ZM10.379,6.163a.973.973,0,0,1,.973-.973H14.6a.973.973,0,0,1,.973.973V9.406a.973.973,0,0,1-.973.973H11.352a.973.973,0,0,1-.973-.973Zm0,7.784a.973.973,0,0,1,.973-.973H14.6a.973.973,0,0,1,.973.973v3.244a.973.973,0,0,1-.973.973H11.352a.973.973,0,0,1-.973-.973Zm4.217,12H11.352a.973.973,0,0,1-.973-.973V21.732a.973.973,0,0,1,.973-.973H14.6a.973.973,0,0,1,.973.973v3.244A.973.973,0,0,1,14.6,25.948Zm6.163,12.974h-5.19V32.111a.973.973,0,0,1,.973-.973h3.244a.973.973,0,0,1,.973.973Zm5.19-13.947a.973.973,0,0,1-.973.973H21.732a.973.973,0,0,1-.973-.973V21.732a.973.973,0,0,1,.973-.973h3.244a.973.973,0,0,1,.973.973Zm0-7.784a.973.973,0,0,1-.973.973H21.732a.973.973,0,0,1-.973-.973V13.947a.973.973,0,0,1,.973-.973h3.244a.973.973,0,0,1,.973.973Zm0-7.784a.973.973,0,0,1-.973.973H21.732a.973.973,0,0,1-.973-.973V6.163a.973.973,0,0,1,.973-.973h3.244a.973.973,0,0,1,.973.973Z" fill="#25304a" opacity="0.9"/>
</svg>
