<svg xmlns="http://www.w3.org/2000/svg" width="32.729" height="37.404" viewBox="0 0 32.729 37.404">
  <path id="Icon_awesome-building" data-name="Icon awesome-building" d="M31.852,35.066H30.391V1.753A1.753,1.753,0,0,0,28.637,0H4.091A1.753,1.753,0,0,0,2.338,1.753V35.066H.877A.877.877,0,0,0,0,35.943V37.4H32.729V35.943A.877.877,0,0,0,31.852,35.066ZM9.351,5.552a.877.877,0,0,1,.877-.877H13.15a.877.877,0,0,1,.877.877V8.474a.877.877,0,0,1-.877.877H10.228a.877.877,0,0,1-.877-.877Zm0,7.013a.877.877,0,0,1,.877-.877H13.15a.877.877,0,0,1,.877.877v2.922a.877.877,0,0,1-.877.877H10.228a.877.877,0,0,1-.877-.877Zm3.8,10.812H10.228a.877.877,0,0,1-.877-.877V19.579a.877.877,0,0,1,.877-.877H13.15a.877.877,0,0,1,.877.877V22.5A.877.877,0,0,1,13.15,23.378ZM18.7,35.066H14.027V28.93a.877.877,0,0,1,.877-.877h2.922a.877.877,0,0,1,.877.877ZM23.378,22.5a.877.877,0,0,1-.877.877H19.579A.877.877,0,0,1,18.7,22.5V19.579a.877.877,0,0,1,.877-.877H22.5a.877.877,0,0,1,.877.877Zm0-7.013a.877.877,0,0,1-.877.877H19.579a.877.877,0,0,1-.877-.877V12.565a.877.877,0,0,1,.877-.877H22.5a.877.877,0,0,1,.877.877Zm0-7.013a.877.877,0,0,1-.877.877H19.579a.877.877,0,0,1-.877-.877V5.552a.877.877,0,0,1,.877-.877H22.5a.877.877,0,0,1,.877.877Z" fill="#25304a" opacity="0.9"/>
</svg>
